# Blender v2.92.0 OBJ File: 'pink demon1.blend'
# www.blender.org
mtllib pinkdog.mtl
o demon_Sphere
v 0.000000 18.677237 31.923321
v 0.000000 26.097595 42.740391
v 0.000000 56.108089 46.899525
v 0.000000 70.811829 13.038720
v -4.340265 13.865225 19.568695
v -8.197152 18.081345 30.251150
v -12.333549 26.576998 39.178154
v -14.796256 39.811195 44.337200
v -14.243013 55.345051 42.048374
v -10.479884 67.146080 30.403427
v -4.804389 70.288445 11.848049
v -8.266036 5.092655 16.988398
v -13.401116 11.429780 27.772474
v -20.468967 25.204657 30.407743
v -24.736588 39.875725 32.142868
v -23.867897 53.734287 29.912537
v -17.716707 64.814392 21.077209
v -8.274470 68.585014 8.041843
v -9.974108 6.164337 10.680638
v -18.644688 -3.480262 19.280209
v -21.657642 16.111961 21.756863
v -26.498056 38.789612 16.089514
v -25.715502 52.026714 13.807666
v -19.392897 61.530571 9.137982
v -9.659321 66.288841 3.497375
v -9.432117 20.614647 2.741460
v -16.813742 20.515224 1.479650
v -21.490875 30.853567 0.539274
v -23.509224 41.452408 0.384245
v -21.844570 50.386482 -0.175564
v -16.566160 58.668537 -0.881458
v -9.125096 64.008461 -1.430036
v -8.380037 20.167418 -8.231959
v -18.963766 13.176531 -15.096031
v -24.482008 22.550097 -19.334999
v -24.917984 38.431271 -20.076374
v -22.374340 47.828873 -19.492792
v -15.863675 56.842731 -15.259166
v -7.922667 62.945816 -7.909296
v -8.261076 12.844794 -14.608783
v -18.432184 0.156476 -25.042744
v -20.227961 17.267368 -30.704737
v -18.438322 38.645927 -32.405266
v -16.429323 49.070854 -30.989126
v -11.824084 57.336304 -25.537466
v -6.062549 62.774147 -14.613410
v -5.999393 10.838400 -18.422331
v -10.714783 8.323717 -30.275209
v -10.068387 25.855118 -36.045116
v -8.949747 41.704872 -37.931339
v -8.254120 52.885059 -36.204975
v -6.092625 57.840672 -30.621254
v -3.280782 62.728138 -18.609766
v 0.000000 16.500694 -19.520445
v 0.000000 19.343403 -31.906422
v 0.000000 33.090939 -37.856937
v 0.000000 43.303707 -39.730019
v 0.000000 88.988258 -38.115154
v 0.000000 58.195004 -32.041306
v 0.000000 62.724003 -19.610836
v 5.999393 10.838400 -18.422331
v 10.714783 8.323717 -30.275209
v 10.068387 25.855118 -36.045116
v 8.949747 41.704872 -37.931339
v 8.254120 52.885059 -36.204975
v 6.092625 57.840672 -30.621254
v 3.280782 62.728138 -18.609766
v 8.261076 12.844794 -14.608783
v 18.432184 0.156476 -25.042744
v 20.227961 17.267368 -30.704737
v 18.438322 38.645927 -32.405266
v 16.429323 49.070854 -30.989126
v 11.824084 57.336304 -25.537466
v 6.062549 62.774147 -14.613410
v 8.380037 20.167418 -8.231959
v 18.963766 13.176531 -15.096031
v 24.482008 22.550097 -19.334999
v 24.917984 38.431271 -20.076374
v 22.374340 47.828873 -19.492792
v 15.863675 56.842731 -15.259166
v 7.922667 62.945816 -7.909296
v 9.432117 20.614647 2.741460
v 16.813742 20.515224 1.479650
v 21.490875 30.853567 0.539274
v 23.509224 41.452408 0.384245
v 21.844570 50.386482 -0.175564
v 16.566160 58.668537 -0.881458
v 9.125096 64.008461 -1.430036
v 9.974108 6.164337 10.680638
v 18.644688 -3.480262 19.280209
v 21.657642 16.111961 21.756863
v 26.498056 38.789612 16.089514
v 25.715502 52.026714 13.807666
v 19.392897 61.530571 9.137982
v 9.659321 66.288841 3.497375
v 8.266036 5.092655 16.988398
v 13.401116 11.429780 27.772474
v 20.468967 25.204657 30.407743
v 24.736588 39.875725 32.142868
v 23.867897 53.734287 29.912537
v 17.716707 64.814392 21.077209
v 8.274470 68.585014 8.041843
v 4.340265 13.865225 19.568695
v 8.197152 18.081345 30.251150
v 12.333549 26.576998 39.178154
v 14.796256 39.811195 44.337200
v 14.243013 55.345051 42.048374
v 10.479884 67.146080 30.403427
v 4.804389 70.288445 11.848049
v 0.000000 20.771797 -13.219848
v 0.000000 17.099520 18.806864
v 0.000000 39.911755 49.145840
v 0.000000 67.999924 33.658081
v 0.000000 65.965523 -1.582592
v -21.882166 49.001419 -9.647820
v -24.145077 39.849457 -9.996612
v -21.928898 30.675697 -9.633702
v -16.401102 22.028433 -7.201226
v -11.436344 21.032043 -6.870924
v -8.412580 63.329460 -4.179592
v -15.852273 57.552032 -7.170337
v 8.412580 63.329460 -4.179592
v 15.852273 57.552032 -7.170337
v 21.882166 49.001419 -9.647820
v 24.145077 39.849457 -9.996612
v 21.928898 30.675697 -9.633702
v 16.401102 22.028433 -7.201226
v 11.436344 21.032043 -6.870924
v 0.000000 23.095999 -8.022520
v 0.000000 23.138966 3.171338
v 0.000000 17.464111 10.964773
vt 0.946332 0.511502
vt 0.927018 0.491335
vt 0.851186 0.554882
vt 0.873174 0.600954
vt 0.794454 0.637171
vt 0.786696 0.574290
vt 0.728336 0.574347
vt 0.718934 0.638750
vt 0.647620 0.615384
vt 0.672013 0.557401
vt 0.609676 0.517439
vt 0.583124 0.561713
vt 0.999887 0.369327
vt 0.555861 0.438950
vt 0.521219 0.467005
vt 0.919060 0.457283
vt 0.846599 0.504049
vt 0.788715 0.517392
vt 0.737275 0.514851
vt 0.674158 0.499307
vt 0.604711 0.442114
vt 0.588560 0.417764
vt 0.855778 0.436659
vt 0.799938 0.444063
vt 0.740473 0.437220
vt 0.631967 0.423645
vt 0.603787 0.415956
vt 0.585888 0.401059
vt 0.920532 0.412875
vt 0.930167 0.355957
vt 0.872719 0.345338
vt 0.814770 0.334081
vt 0.761782 0.325577
vt 0.697541 0.316224
vt 0.627012 0.318886
vt 0.576177 0.318090
vt 0.816831 0.278277
vt 0.816722 0.223949
vt 0.766052 0.214358
vt 0.763706 0.268481
vt 0.709333 0.260722
vt 0.695212 0.198398
vt 0.652374 0.192580
vt 0.638220 0.260571
vt 0.940945 0.300334
vt 0.935125 0.328380
vt 0.877344 0.298888
vt 0.879347 0.251824
vt 0.582623 0.232541
vt 0.601492 0.249920
vt 0.955377 0.256907
vt 0.899032 0.185660
vt 0.840189 0.155502
vt 0.782296 0.142730
vt 0.685855 0.150152
vt 0.652150 0.158976
vt 0.603353 0.177943
vt 0.815539 0.080381
vt 0.712005 0.086699
vt 0.647595 0.137811
vt 0.610714 0.157673
vt 0.974723 0.227434
vt 0.926058 0.141584
vt 0.873105 0.101668
vt 0.999887 0.215712
vt 0.963853 0.108002
vt 0.908223 0.048238
vt 0.839014 0.010852
vt 0.754614 0.000113
vt 0.623495 0.044869
vt 0.565939 0.129539
vt 0.254614 0.638750
vt 0.212004 0.552164
vt 0.147595 0.501052
vt 0.123495 0.593994
vt 0.499887 0.269536
vt 0.474723 0.411429
vt 0.499887 0.423151
vt 0.463853 0.530861
vt 0.426058 0.497279
vt 0.373105 0.537195
vt 0.408223 0.590625
vt 0.339014 0.628011
vt 0.315539 0.558482
vt 0.110713 0.481190
vt 0.065939 0.509324
vt 0.455377 0.381956
vt 0.399032 0.453203
vt 0.340189 0.483362
vt 0.282296 0.496133
vt 0.185855 0.488711
vt 0.152150 0.479887
vt 0.103353 0.460920
vt 0.152374 0.446283
vt 0.082622 0.406322
vt 0.440945 0.338529
vt 0.379347 0.387039
vt 0.316722 0.414914
vt 0.266052 0.424505
vt 0.195212 0.440465
vt 0.435125 0.310483
vt 0.430167 0.282906
vt 0.372719 0.293525
vt 0.377344 0.339975
vt 0.316831 0.360587
vt 0.314770 0.304783
vt 0.261782 0.313286
vt 0.263706 0.370382
vt 0.209333 0.378141
vt 0.197541 0.322639
vt 0.127012 0.319976
vt 0.138220 0.378292
vt 0.076177 0.320773
vt 0.101491 0.388943
vt 0.514845 0.227258
vt 0.500113 0.310592
vt 0.420532 0.225988
vt 0.355778 0.202204
vt 0.299938 0.194800
vt 0.240473 0.201643
vt 0.131967 0.215218
vt 0.103787 0.222907
vt 0.085889 0.237804
vt 0.346599 0.134815
vt 0.288715 0.121472
vt 0.237275 0.124012
vt 0.174158 0.139556
vt 0.104711 0.196749
vt 0.088560 0.221099
vt 0.419060 0.181581
vt 0.503495 0.391179
vt 0.427018 0.147528
vt 0.351186 0.083981
vt 0.286696 0.064573
vt 0.228336 0.064516
vt 0.172013 0.081462
vt 0.109677 0.121424
vt 0.055861 0.199913
vt 0.294454 0.001692
vt 0.219550 0.007803
vt 0.148236 0.030554
vt 0.083125 0.077150
vt 0.446333 0.127361
vt 0.373175 0.037909
vt 0.021220 0.171858
vt 0.527720 0.180005
vt 0.027719 0.458858
vt 0.014845 0.411605
vt 0.000113 0.328270
vt 0.003495 0.247683
vn 0.0000 0.9983 -0.0584
vn -0.1833 0.9786 -0.0930
vn -0.3890 0.8503 0.3544
vn 0.0000 0.8895 0.4569
vn 0.0000 0.4546 0.8907
vn -0.5378 0.4284 0.7261
vn -0.5492 -0.1169 0.8275
vn 0.0000 -0.1317 0.9913
vn 0.0000 -0.6066 0.7950
vn -0.4003 -0.5229 0.7525
vn 0.0453 -0.7750 0.6304
vn 0.0000 -0.8800 0.4750
vn 0.0000 0.9603 -0.2789
vn 0.6253 -0.7418 0.2423
vn 0.0000 -0.9927 0.1203
vn -0.3285 0.9193 -0.2168
vn -0.6500 0.7549 0.0872
vn -0.8741 0.3581 0.3281
vn -0.9045 -0.0785 0.4191
vn -0.7583 -0.3604 0.5432
vn -0.0240 -0.6216 0.7829
vn 0.7273 -0.6352 0.2598
vn -0.7333 0.6452 -0.2143
vn -0.9521 0.2914 -0.0927
vn -0.9959 -0.0844 -0.0310
vn -0.9350 -0.2856 0.2100
vn -0.2821 -0.9555 0.0855
vn 0.4581 -0.7315 -0.5050
vn -0.4001 0.8463 -0.3516
vn -0.4081 0.8532 -0.3248
vn -0.7085 0.6497 -0.2755
vn -0.9237 0.3407 -0.1751
vn -0.9955 -0.0208 -0.0926
vn -0.9510 -0.2927 -0.0989
vn -0.6436 -0.6625 -0.3831
vn 0.1784 -0.8523 -0.4917
vn -0.9105 0.4123 -0.0298
vn -0.8845 0.4205 -0.2021
vn -0.9823 0.0956 -0.1608
vn -0.9962 0.0398 0.0780
vn -0.9479 -0.2523 0.1944
vn -0.9833 -0.1737 0.0534
vn -0.6185 -0.5412 0.5697
vn -0.5964 -0.7238 0.3469
vn -0.4175 0.8995 -0.1289
vn -0.4088 0.8915 -0.1950
vn -0.6984 0.7046 -0.1256
vn -0.6756 0.7230 -0.1440
vn 0.1705 -0.6596 0.7320
vn 0.0213 -0.9322 0.3612
vn -0.3498 0.9210 -0.1715
vn -0.5523 0.7704 -0.3184
vn -0.7130 0.4207 -0.5609
vn -0.7264 0.0884 -0.6815
vn -0.7319 -0.2302 -0.6413
vn -0.3183 -0.9447 -0.0788
vn 0.3210 -0.7204 0.6147
vn -0.3723 0.0187 -0.9279
vn -0.1737 -0.2123 -0.9616
vn 0.2902 -0.7001 -0.6524
vn 0.6493 -0.7423 0.1656
vn -0.1948 0.9480 -0.2517
vn -0.5216 0.8495 -0.0787
vn -0.5898 0.3425 -0.7313
vn 0.0000 0.9605 -0.2782
vn 0.0000 0.9116 0.4109
vn 0.0000 0.9664 -0.2571
vn 0.0000 -0.0279 -0.9996
vn 0.0000 -0.2031 -0.9791
vn 0.0000 -0.5966 -0.8025
vn 0.0000 -0.9631 0.2690
vn 0.1737 -0.2123 -0.9616
vn -0.2902 -0.7001 -0.6524
vn 0.1948 0.9480 -0.2517
vn 0.5216 0.8495 -0.0787
vn 0.5898 0.3425 -0.7313
vn 0.3723 0.0187 -0.9279
vn -0.6493 -0.7423 0.1656
vn 0.3498 0.9210 -0.1715
vn 0.5523 0.7704 -0.3184
vn 0.7130 0.4207 -0.5609
vn 0.7264 0.0884 -0.6815
vn 0.7319 -0.2302 -0.6413
vn 0.3183 -0.9447 -0.0788
vn -0.3210 -0.7204 0.6147
vn 0.6185 -0.5412 0.5697
vn -0.1705 -0.6596 0.7320
vn 0.4175 0.8995 -0.1289
vn 0.6756 0.7230 -0.1440
vn 0.8845 0.4205 -0.2021
vn 0.9823 0.0956 -0.1608
vn 0.9833 -0.1737 0.0534
vn 0.4088 0.8915 -0.1950
vn 0.4081 0.8532 -0.3248
vn 0.7085 0.6497 -0.2755
vn 0.6984 0.7046 -0.1256
vn 0.9105 0.4123 -0.0298
vn 0.9237 0.3407 -0.1751
vn 0.9955 -0.0208 -0.0926
vn 0.9962 0.0398 0.0780
vn 0.9479 -0.2523 0.1944
vn 0.9510 -0.2927 -0.0989
vn 0.6436 -0.6625 -0.3831
vn 0.5964 -0.7238 0.3469
vn -0.1784 -0.8523 -0.4917
vn -0.0213 -0.9322 0.3612
vn 0.0000 -0.9389 0.3442
vn 0.0000 -0.9050 -0.4254
vn 0.4001 0.8463 -0.3516
vn 0.7333 0.6452 -0.2143
vn 0.9521 0.2914 -0.0927
vn 0.9959 -0.0844 -0.0310
vn 0.9350 -0.2856 0.2100
vn 0.2821 -0.9555 0.0855
vn -0.4581 -0.7315 -0.5050
vn 0.6500 0.7549 0.0872
vn 0.8741 0.3581 0.3281
vn 0.9045 -0.0785 0.4191
vn 0.7583 -0.3604 0.5432
vn 0.0240 -0.6216 0.7829
vn -0.7273 -0.6352 0.2598
vn 0.3285 0.9193 -0.2168
vn 0.0000 -0.8252 -0.5648
vn 0.1833 0.9786 -0.0930
vn 0.3890 0.8503 0.3544
vn 0.5378 0.4284 0.7261
vn 0.5492 -0.1169 0.8275
vn 0.4003 -0.5229 0.7525
vn -0.0453 -0.7750 0.6304
vn -0.6253 -0.7418 0.2423
vn 0.0000 -0.7671 0.6415
usemtl Material
s 1
f 4/1/1 11/2/2 10/3/3 113/4/4
f 3/5/5 9/6/6 8/7/7 112/8/8
f 2/9/9 7/10/10 6/11/11 1/12/12
f 114/13/13 11/2/2 4/1/1
f 113/4/4 10/3/3 9/6/6 3/5/5
f 112/8/8 8/7/7 7/10/10 2/9/9
f 1/12/12 6/11/11 5/14/14 111/15/15
f 114/13/13 18/16/16 11/2/2
f 10/3/3 17/17/17 16/18/18 9/6/6
f 8/7/7 15/19/19 14/20/20 7/10/10
f 6/11/11 13/21/21 12/22/22 5/14/14
f 11/2/2 18/16/16 17/17/17 10/3/3
f 9/6/6 16/18/18 15/19/19 8/7/7
f 7/10/10 14/20/20 13/21/21 6/11/11
f 17/17/17 24/23/23 23/24/24 16/18/18
f 15/19/19 22/25/25 21/26/26 14/20/20
f 13/21/21 20/27/27 19/28/28 12/22/22
f 18/16/16 25/29/29 24/23/23 17/17/17
f 16/18/18 23/24/24 22/25/25 15/19/19
f 14/20/20 21/26/26 20/27/27 13/21/21
f 114/13/13 25/29/29 18/16/16
f 25/29/29 32/30/30 31/31/31 24/23/23
f 23/24/24 30/32/32 29/33/33 22/25/25
f 21/26/26 28/34/34 27/35/35 20/27/27
f 114/13/13 32/30/30 25/29/29
f 24/23/23 31/31/31 30/32/32 23/24/24
f 22/25/25 29/33/33 28/34/34 21/26/26
f 20/27/27 27/35/35 26/36/36 19/28/28
f 115/37/37 37/38/38 36/39/39 116/40/40
f 117/41/41 35/42/42 34/43/43 118/44/44
f 114/13/13 39/45/45 120/46/46 32/30/30
f 121/47/47 38/48/48 37/38/38 115/37/37
f 116/40/40 36/39/39 35/42/42 117/41/41
f 118/44/44 34/43/43 33/49/49 119/50/50
f 120/46/46 39/45/45 38/48/48 121/47/47
f 114/13/13 46/51/51 39/45/45
f 38/48/48 45/52/52 44/53/53 37/38/38
f 36/39/39 43/54/54 42/55/55 35/42/42
f 34/43/43 41/56/56 40/57/57 33/49/49
f 39/45/45 46/51/51 45/52/52 38/48/48
f 37/38/38 44/53/53 43/54/54 36/39/39
f 35/42/42 42/55/55 41/56/56 34/43/43
f 43/54/54 50/58/58 49/59/59 42/55/55
f 41/56/56 48/60/60 47/61/61 40/57/57
f 46/51/51 53/62/62 52/63/63 45/52/52
f 44/53/53 51/64/64 50/58/58 43/54/54
f 42/55/55 49/59/59 48/60/60 41/56/56
f 114/13/13 53/62/62 46/51/51
f 45/52/52 52/63/63 51/64/64 44/53/53
f 53/62/62 60/65/65 59/66/66 52/63/63
f 51/64/64 58/67/67 57/68/68 50/58/58
f 49/59/59 56/69/69 55/70/70 48/60/60
f 114/13/13 60/65/65 53/62/62
f 52/63/63 59/66/66 58/67/67 51/64/64
f 50/58/58 57/68/68 56/69/69 49/59/59
f 48/60/60 55/70/70 54/71/71 47/61/61
f 56/72/69 63/73/72 62/74/73 55/75/70
f 114/76/13 67/77/74 60/78/65
f 59/79/66 66/80/75 65/81/76 58/82/67
f 57/83/68 64/84/77 63/73/72 56/72/69
f 55/75/70 62/74/73 61/85/78 54/86/71
f 60/78/65 67/77/74 66/80/75 59/79/66
f 58/82/67 65/81/76 64/84/77 57/83/68
f 114/76/13 74/87/79 67/77/74
f 66/80/75 73/88/80 72/89/81 65/81/76
f 64/84/77 71/90/82 70/91/83 63/73/72
f 62/74/73 69/92/84 68/93/85 61/85/78
f 67/77/74 74/87/79 73/88/80 66/80/75
f 65/81/76 72/89/81 71/90/82 64/84/77
f 63/73/72 70/91/83 69/92/84 62/74/73
f 69/92/84 76/94/86 75/95/87 68/93/85
f 74/87/79 81/96/88 80/97/89 73/88/80
f 72/89/81 79/98/90 78/99/91 71/90/82
f 70/91/83 77/100/92 76/94/86 69/92/84
f 114/76/13 81/96/88 74/87/79
f 73/88/80 80/97/89 79/98/90 72/89/81
f 71/90/82 78/99/91 77/100/92 70/91/83
f 122/101/93 88/102/94 87/103/95 123/104/96
f 124/105/97 86/106/98 85/107/99 125/108/100
f 126/109/101 84/110/102 83/111/103 127/112/104
f 114/76/13 88/102/94 122/101/93 81/96/88
f 123/104/96 87/103/95 86/106/98 124/105/97
f 125/108/100 85/107/99 84/110/102 126/109/101
f 127/112/104 83/111/103 82/113/105 128/114/106
f 26/36/36 119/50/50 129/115/107 130/116/108
f 114/76/13 95/117/109 88/102/94
f 87/103/95 94/118/110 93/119/111 86/106/98
f 85/107/99 92/120/112 91/121/113 84/110/102
f 83/111/103 90/122/114 89/123/115 82/113/105
f 88/102/94 95/117/109 94/118/110 87/103/95
f 86/106/98 93/119/111 92/120/112 85/107/99
f 84/110/102 91/121/113 90/122/114 83/111/103
f 94/118/110 101/124/116 100/125/117 93/119/111
f 92/120/112 99/126/118 98/127/119 91/121/113
f 90/122/114 97/128/120 96/129/121 89/123/115
f 95/117/109 102/130/122 101/124/116 94/118/110
f 93/119/111 100/125/117 99/126/118 92/120/112
f 91/121/113 98/127/119 97/128/120 90/122/114
f 19/28/28 26/36/36 130/116/108 131/131/123
f 114/76/13 102/130/122 95/117/109
f 102/130/122 109/132/124 108/133/125 101/124/116
f 100/125/117 107/134/126 106/135/127 99/126/118
f 98/127/119 105/136/128 104/137/129 97/128/120
f 111/15/15 5/14/14 131/131/123
f 114/76/13 109/132/124 102/130/122
f 101/124/116 108/133/125 107/134/126 100/125/117
f 99/126/118 106/135/127 105/136/128 98/127/119
f 97/128/120 104/137/129 103/138/130 96/129/121
f 107/134/126 3/139/5 112/140/8 106/135/127
f 105/136/128 2/141/9 1/142/12 104/137/129
f 114/76/13 4/143/1 109/132/124
f 108/133/125 113/144/4 3/139/5 107/134/126
f 106/135/127 112/140/8 2/141/9 105/136/128
f 104/137/129 1/142/12 111/145/15 103/138/130
f 109/132/124 4/143/1 113/144/4 108/133/125
f 32/30/30 120/46/46 121/47/47 31/31/31
f 27/35/35 118/44/44 119/50/50 26/36/36
f 29/33/33 116/40/40 117/41/41 28/34/34
f 31/31/31 121/47/47 115/37/37 30/32/32
f 28/34/34 117/41/41 118/44/44 27/35/35
f 30/32/32 115/37/37 116/40/40 29/33/33
f 76/94/86 127/112/104 128/114/106 75/95/87
f 78/99/91 125/108/100 126/109/101 77/100/92
f 80/97/89 123/104/96 124/105/97 79/98/90
f 77/100/92 126/109/101 127/112/104 76/94/86
f 79/98/90 124/105/97 125/108/100 78/99/91
f 81/96/88 122/101/93 123/104/96 80/97/89
f 119/50/50 33/49/49 129/115/107
f 33/49/49 40/57/57 110/146/131 129/115/107
f 40/57/57 47/61/61 54/71/71 110/146/131
f 54/86/71 61/85/78 68/93/85 110/147/131
f 75/95/87 129/148/107 110/147/131 68/93/85
f 75/95/87 128/114/106 129/148/107
f 129/148/107 128/114/106 82/113/105 130/149/108
f 89/123/115 131/150/123 130/149/108 82/113/105
f 103/138/130 111/145/15 131/150/123
f 5/14/14 12/22/22 19/28/28 131/131/123
f 89/123/115 96/129/121 103/138/130 131/150/123
