# Blender 3.6.5
# www.blender.org
mtllib Coin.mtl
o coin
v 0.000000 -0.320011 -3.011081
v 2.129156 -0.320011 -2.129156
v 2.129156 0.318651 -2.129156
v 0.000000 0.318651 -3.011081
v 2.129156 -0.320011 -2.129156
v 3.011081 -0.320011 0.000000
v 3.011081 0.318652 -0.000000
v 2.129156 0.318651 -2.129156
v 3.011081 -0.320011 0.000000
v 2.129156 -0.320011 2.129156
v 2.129156 0.318652 2.129156
v 3.011081 0.318652 -0.000000
v 2.129156 -0.320011 2.129156
v 0.000000 -0.320011 3.011081
v 0.000000 0.318652 3.011081
v 2.129156 0.318652 2.129156
v 0.000000 -0.320011 3.011081
v -2.129156 -0.320011 2.129156
v -2.129156 0.318652 2.129156
v 0.000000 0.318652 3.011081
v -2.129156 -0.320011 2.129156
v -3.011081 -0.320011 0.000000
v -3.011081 0.318652 -0.000000
v -2.129156 0.318652 2.129156
v 2.129156 0.318651 -2.129156
v 3.011081 0.318652 -0.000000
v 2.129156 0.318652 2.129156
v 0.000000 0.318651 -3.011081
v 0.000000 0.318652 3.011081
v -2.129156 0.318651 -2.129156
v -2.129156 0.318652 2.129156
v -3.011081 0.318652 -0.000000
v -3.011081 -0.320011 0.000000
v -2.129156 -0.320011 -2.129156
v -2.129156 0.318651 -2.129156
v -3.011081 0.318652 -0.000000
v -2.129156 -0.320011 -2.129156
v 0.000000 -0.320011 -3.011081
v 0.000000 0.318651 -3.011081
v -2.129156 0.318651 -2.129156
v 2.129156 -0.320011 2.129156
v 3.011081 -0.320011 0.000000
v 2.129156 -0.320011 -2.129156
v 0.000000 -0.320011 3.011081
v 0.000000 -0.320011 -3.011081
v -2.129156 -0.320011 2.129156
v -2.129156 -0.320011 -2.129156
v -3.011081 -0.320011 0.000000
vn 0.3827 -0.0000 -0.9239
vn 0.9239 -0.0000 -0.3827
vn 0.9239 -0.0000 0.3827
vn 0.3827 -0.0000 0.9239
vn -0.3827 -0.0000 0.9239
vn -0.9239 -0.0000 0.3827
vn -0.0000 1.0000 -0.0000
vn -0.9239 -0.0000 -0.3827
vn -0.3827 -0.0000 -0.9239
vn -0.0000 -1.0000 -0.0000
vt 0.527521 0.962034
vt 0.475580 0.962034
vt 0.475580 0.859570
vt 0.527521 0.859570
vt 0.407336 0.847075
vt 0.238895 0.985690
vt 0.069991 0.844839
vt -0.000434 0.507032
vt 0.476643 0.510194
vt 0.068873 0.170150
vt 0.406218 0.172386
vt 0.237314 0.031535
vt 0.931889 0.176457
vt 0.760433 0.039872
vt 0.588977 0.176457
vt 0.517958 0.506201
vt 1.002908 0.506201
vt 0.588977 0.835945
vt 0.931889 0.835945
vt 0.760433 0.972529
s 1
usemtl Material__coin01_2_png
f 3/1/1 2/2/1 1/3/1
f 4/4/1 3/1/1 1/3/1
f 7/1/2 6/2/2 5/3/2
f 8/4/2 7/1/2 5/3/2
f 11/1/3 10/2/3 9/3/3
f 12/4/3 11/1/3 9/3/3
f 15/1/4 14/2/4 13/3/4
f 16/4/4 15/1/4 13/3/4
f 19/1/5 18/2/5 17/3/5
f 20/4/5 19/1/5 17/3/5
f 23/1/6 22/2/6 21/3/6
f 24/4/6 23/1/6 21/3/6
f 27/5/7 26/6/7 25/7/7
f 25/7/7 28/8/7 27/5/7
f 28/8/7 29/9/7 27/5/7
f 28/8/7 30/10/7 29/9/7
f 30/10/7 31/11/7 29/9/7
f 30/10/7 32/12/7 31/11/7
f 35/1/8 34/2/8 33/3/8
f 36/4/8 35/1/8 33/3/8
f 39/1/9 38/2/9 37/3/9
f 40/4/9 39/1/9 37/3/9
f 43/13/10 42/14/10 41/15/10
f 41/15/10 44/16/10 43/13/10
f 44/16/10 45/17/10 43/13/10
f 44/16/10 46/18/10 45/17/10
f 46/18/10 47/19/10 45/17/10
f 46/18/10 48/20/10 47/19/10
o UCX_coin.001
v 0.000000 -0.320011 -3.011081
v 2.129156 -0.320011 -2.129156
v 2.129156 0.318651 -2.129156
v 0.000000 0.318651 -3.011081
v 2.129156 -0.320011 -2.129156
v 3.011081 -0.320011 0.000000
v 3.011081 0.318652 -0.000000
v 2.129156 0.318651 -2.129156
v 3.011081 -0.320011 0.000000
v 2.129156 -0.320011 2.129156
v 2.129156 0.318652 2.129156
v 3.011081 0.318652 -0.000000
v 2.129156 -0.320011 2.129156
v 0.000000 -0.320011 3.011081
v 0.000000 0.318652 3.011081
v 2.129156 0.318652 2.129156
v 0.000000 -0.320011 3.011081
v -2.129156 -0.320011 2.129156
v -2.129156 0.318652 2.129156
v 0.000000 0.318652 3.011081
v -2.129156 -0.320011 2.129156
v -3.011081 -0.320011 0.000000
v -3.011081 0.318652 -0.000000
v -2.129156 0.318652 2.129156
v 2.129156 0.318651 -2.129156
v 3.011081 0.318652 -0.000000
v 2.129156 0.318652 2.129156
v 0.000000 0.318651 -3.011081
v 0.000000 0.318652 3.011081
v -2.129156 0.318651 -2.129156
v -2.129156 0.318652 2.129156
v -3.011081 0.318652 -0.000000
v -3.011081 -0.320011 0.000000
v -2.129156 -0.320011 -2.129156
v -2.129156 0.318651 -2.129156
v -3.011081 0.318652 -0.000000
v -2.129156 -0.320011 -2.129156
v 0.000000 -0.320011 -3.011081
v 0.000000 0.318651 -3.011081
v -2.129156 0.318651 -2.129156
v 2.129156 -0.320011 2.129156
v 3.011081 -0.320011 0.000000
v 2.129156 -0.320011 -2.129156
v 0.000000 -0.320011 3.011081
v 0.000000 -0.320011 -3.011081
v -2.129156 -0.320011 2.129156
v -2.129156 -0.320011 -2.129156
v -3.011081 -0.320011 0.000000
vn 0.3827 -0.0000 -0.9239
vn 0.9239 -0.0000 -0.3827
vn 0.9239 -0.0000 0.3827
vn 0.3827 -0.0000 0.9239
vn -0.3827 -0.0000 0.9239
vn -0.9239 -0.0000 0.3827
vn -0.0000 1.0000 -0.0000
vn -0.9239 -0.0000 -0.3827
vn -0.3827 -0.0000 -0.9239
vn -0.0000 -1.0000 -0.0000
vt 0.527521 0.962034
vt 0.475580 0.962034
vt 0.475580 0.859570
vt 0.527521 0.859570
vt 0.407336 0.847075
vt 0.238895 0.985690
vt 0.069991 0.844839
vt -0.000434 0.507032
vt 0.476643 0.510194
vt 0.068873 0.170150
vt 0.406218 0.172386
vt 0.237314 0.031535
vt 0.931889 0.176457
vt 0.760433 0.039872
vt 0.588977 0.176457
vt 0.517958 0.506201
vt 1.002908 0.506201
vt 0.588977 0.835945
vt 0.931889 0.835945
vt 0.760433 0.972529
s 1
usemtl Material__coin01_2_png
f 51/21/11 50/22/11 49/23/11
f 52/24/11 51/21/11 49/23/11
f 55/21/12 54/22/12 53/23/12
f 56/24/12 55/21/12 53/23/12
f 59/21/13 58/22/13 57/23/13
f 60/24/13 59/21/13 57/23/13
f 63/21/14 62/22/14 61/23/14
f 64/24/14 63/21/14 61/23/14
f 67/21/15 66/22/15 65/23/15
f 68/24/15 67/21/15 65/23/15
f 71/21/16 70/22/16 69/23/16
f 72/24/16 71/21/16 69/23/16
f 75/25/17 74/26/17 73/27/17
f 73/27/17 76/28/17 75/25/17
f 76/28/17 77/29/17 75/25/17
f 76/28/17 78/30/17 77/29/17
f 78/30/17 79/31/17 77/29/17
f 78/30/17 80/32/17 79/31/17
f 83/21/18 82/22/18 81/23/18
f 84/24/18 83/21/18 81/23/18
f 87/21/19 86/22/19 85/23/19
f 88/24/19 87/21/19 85/23/19
f 91/33/20 90/34/20 89/35/20
f 89/35/20 92/36/20 91/33/20
f 92/36/20 93/37/20 91/33/20
f 92/36/20 94/38/20 93/37/20
f 94/38/20 95/39/20 93/37/20
f 94/38/20 96/40/20 95/39/20
